<mxfile host="app.diagrams.net" modified="2023-11-20T00:44:20.149Z" agent="Mozilla/5.0 (Windows NT 10.0; Win64; x64) AppleWebKit/537.36 (KHTML, like Gecko) Chrome/119.0.0.0 Safari/537.36" version="22.1.3" etag="WHWPn10God5DOAso5oQU" type="github">
  <diagram name="PÃ¡gina-1" id="l_2unw_tvO-74hCeDC7u">
    <mxGraphModel>
      <root>
        <mxCell id="0" />
        <mxCell id="1" parent="0" />
      </root>
    </mxGraphModel>
  </diagram>
</mxfile>
